<svg width="38" height="50" viewBox="0 0 38 50" fill="none" xmlns="http://www.w3.org/2000/svg">
<path d="M-23.05 -11.5676C-23.05 -8.01503 -25.949 -5.13514 -29.525 -5.13514C-33.101 -5.13514 -36 -8.01503 -36 -11.5676C-36 -15.1201 -33.101 -18 -29.525 -18C-25.949 -18 -23.05 -15.1201 -23.05 -11.5676Z" fill="#3FD9DC"/>
<path d="M-23.05 6.81081C-23.05 10.3633 -25.949 13.2432 -29.525 13.2432C-33.101 13.2432 -36 10.3633 -36 6.81081C-36 3.25828 -33.101 0.378378 -29.525 0.378378C-25.949 0.378378 -23.05 3.25828 -23.05 6.81081Z" fill="#3FD9DC"/>
<path d="M-2.7 6.81081C-2.7 10.3633 -5.59896 13.2432 -9.175 13.2432C-12.751 13.2432 -15.65 10.3633 -15.65 6.81081C-15.65 3.25828 -12.751 0.378378 -9.175 0.378378C-5.59896 0.378378 -2.7 3.25828 -2.7 6.81081Z" fill="#3FD9DC"/>
<path d="M17.65 6.81081C17.65 10.3633 14.751 13.2432 11.175 13.2432C7.59896 13.2432 4.7 10.3633 4.7 6.81081C4.7 3.25828 7.59896 0.378378 11.175 0.378378C14.751 0.378378 17.65 3.25828 17.65 6.81081Z" fill="#3FD9DC"/>
<path d="M38 6.81081C38 10.3633 35.101 13.2432 31.525 13.2432C27.949 13.2432 25.05 10.3633 25.05 6.81081C25.05 3.25828 27.949 0.378378 31.525 0.378378C35.101 0.378378 38 3.25828 38 6.81081Z" fill="#3FD9DC"/>
<path d="M-23.05 25.1892C-23.05 28.7417 -25.949 31.6216 -29.525 31.6216C-33.101 31.6216 -36 28.7417 -36 25.1892C-36 21.6367 -33.101 18.7568 -29.525 18.7568C-25.949 18.7568 -23.05 21.6367 -23.05 25.1892Z" fill="#3FD9DC"/>
<path d="M-2.7 25.1892C-2.7 28.7417 -5.59896 31.6216 -9.175 31.6216C-12.751 31.6216 -15.65 28.7417 -15.65 25.1892C-15.65 21.6367 -12.751 18.7568 -9.175 18.7568C-5.59896 18.7568 -2.7 21.6367 -2.7 25.1892Z" fill="#3FD9DC"/>
<path d="M17.65 25.1892C17.65 28.7417 14.751 31.6216 11.175 31.6216C7.59896 31.6216 4.7 28.7417 4.7 25.1892C4.7 21.6367 7.59896 18.7568 11.175 18.7568C14.751 18.7568 17.65 21.6367 17.65 25.1892Z" fill="#3FD9DC"/>
<path d="M38 25.1892C38 28.7417 35.101 31.6216 31.525 31.6216C27.949 31.6216 25.05 28.7417 25.05 25.1892C25.05 21.6367 27.949 18.7568 31.525 18.7568C35.101 18.7568 38 21.6367 38 25.1892Z" fill="#3FD9DC"/>
<path d="M-23.05 43.5676C-23.05 47.1201 -25.949 50 -29.525 50C-33.101 50 -36 47.1201 -36 43.5676C-36 40.015 -33.101 37.1351 -29.525 37.1351C-25.949 37.1351 -23.05 40.015 -23.05 43.5676Z" fill="#3FD9DC"/>
<path d="M-2.7 43.5676C-2.7 47.1201 -5.59896 50 -9.175 50C-12.751 50 -15.65 47.1201 -15.65 43.5676C-15.65 40.015 -12.751 37.1351 -9.175 37.1351C-5.59896 37.1351 -2.7 40.015 -2.7 43.5676Z" fill="#3FD9DC"/>
<path d="M17.65 43.5676C17.65 47.1201 14.751 50 11.175 50C7.59896 50 4.7 47.1201 4.7 43.5676C4.7 40.015 7.59896 37.1351 11.175 37.1351C14.751 37.1351 17.65 40.015 17.65 43.5676Z" fill="#3FD9DC"/>
<path d="M38 43.5676C38 47.1201 35.101 50 31.525 50C27.949 50 25.05 47.1201 25.05 43.5676C25.05 40.015 27.949 37.1351 31.525 37.1351C35.101 37.1351 38 40.015 38 43.5676Z" fill="#3FD9DC"/>
<path d="M-2.7 -11.5676C-2.7 -8.01503 -5.59896 -5.13514 -9.175 -5.13514C-12.751 -5.13514 -15.65 -8.01503 -15.65 -11.5676C-15.65 -15.1201 -12.751 -18 -9.175 -18C-5.59896 -18 -2.7 -15.1201 -2.7 -11.5676Z" fill="#3FD9DC"/>
<path d="M17.65 -11.5676C17.65 -8.01503 14.751 -5.13514 11.175 -5.13514C7.59896 -5.13514 4.7 -8.01503 4.7 -11.5676C4.7 -15.1201 7.59896 -18 11.175 -18C14.751 -18 17.65 -15.1201 17.65 -11.5676Z" fill="#3FD9DC"/>
<path d="M38 -11.5676C38 -8.01503 35.101 -5.13514 31.525 -5.13514C27.949 -5.13514 25.05 -8.01503 25.05 -11.5676C25.05 -15.1201 27.949 -18 31.525 -18C35.101 -18 38 -15.1201 38 -11.5676Z" fill="#3FD9DC"/>
</svg>
