<svg width="60" height="65" viewBox="0 0 60 65" fill="none" xmlns="http://www.w3.org/2000/svg">
<path d="M-1.05 6.43243C-1.05 9.98497 -3.94896 12.8649 -7.525 12.8649C-11.101 12.8649 -14 9.98497 -14 6.43243C-14 2.8799 -11.101 0 -7.525 0C-3.94896 0 -1.05 2.8799 -1.05 6.43243Z" fill="#FE764C"/>
<path d="M-1.05 24.8108C-1.05 28.3633 -3.94896 31.2432 -7.525 31.2432C-11.101 31.2432 -14 28.3633 -14 24.8108C-14 21.2583 -11.101 18.3784 -7.525 18.3784C-3.94896 18.3784 -1.05 21.2583 -1.05 24.8108Z" fill="#FE764C"/>
<path d="M19.3 24.8108C19.3 28.3633 16.401 31.2432 12.825 31.2432C9.24896 31.2432 6.35 28.3633 6.35 24.8108C6.35 21.2583 9.24896 18.3784 12.825 18.3784C16.401 18.3784 19.3 21.2583 19.3 24.8108Z" fill="#FE764C"/>
<path d="M39.65 24.8108C39.65 28.3633 36.751 31.2432 33.175 31.2432C29.599 31.2432 26.7 28.3633 26.7 24.8108C26.7 21.2583 29.599 18.3784 33.175 18.3784C36.751 18.3784 39.65 21.2583 39.65 24.8108Z" fill="#FE764C"/>
<path d="M60 24.8108C60 28.3633 57.101 31.2432 53.525 31.2432C49.949 31.2432 47.05 28.3633 47.05 24.8108C47.05 21.2583 49.949 18.3784 53.525 18.3784C57.101 18.3784 60 21.2583 60 24.8108Z" fill="#FE764C"/>
<path d="M-1.05 43.1892C-1.05 46.7417 -3.94896 49.6216 -7.525 49.6216C-11.101 49.6216 -14 46.7417 -14 43.1892C-14 39.6367 -11.101 36.7568 -7.525 36.7568C-3.94896 36.7568 -1.05 39.6367 -1.05 43.1892Z" fill="#FE764C"/>
<path d="M19.3 43.1892C19.3 46.7417 16.401 49.6216 12.825 49.6216C9.24896 49.6216 6.35 46.7417 6.35 43.1892C6.35 39.6367 9.24896 36.7568 12.825 36.7568C16.401 36.7568 19.3 39.6367 19.3 43.1892Z" fill="#FE764C"/>
<path d="M39.65 43.1892C39.65 46.7417 36.751 49.6216 33.175 49.6216C29.599 49.6216 26.7 46.7417 26.7 43.1892C26.7 39.6367 29.599 36.7568 33.175 36.7568C36.751 36.7568 39.65 39.6367 39.65 43.1892Z" fill="#FE764C"/>
<path d="M60 43.1892C60 46.7417 57.101 49.6216 53.525 49.6216C49.949 49.6216 47.05 46.7417 47.05 43.1892C47.05 39.6367 49.949 36.7568 53.525 36.7568C57.101 36.7568 60 39.6367 60 43.1892Z" fill="#FE764C"/>
<path d="M-1.05 61.5676C-1.05 65.1201 -3.94896 68 -7.525 68C-11.101 68 -14 65.1201 -14 61.5676C-14 58.015 -11.101 55.1351 -7.525 55.1351C-3.94896 55.1351 -1.05 58.015 -1.05 61.5676Z" fill="#FE764C"/>
<path d="M19.3 61.5676C19.3 65.1201 16.401 68 12.825 68C9.24896 68 6.35 65.1201 6.35 61.5676C6.35 58.015 9.24896 55.1351 12.825 55.1351C16.401 55.1351 19.3 58.015 19.3 61.5676Z" fill="#FE764C"/>
<path d="M39.65 61.5676C39.65 65.1201 36.751 68 33.175 68C29.599 68 26.7 65.1201 26.7 61.5676C26.7 58.015 29.599 55.1351 33.175 55.1351C36.751 55.1351 39.65 58.015 39.65 61.5676Z" fill="#FE764C"/>
<path d="M60 61.5676C60 65.1201 57.101 68 53.525 68C49.949 68 47.05 65.1201 47.05 61.5676C47.05 58.015 49.949 55.1351 53.525 55.1351C57.101 55.1351 60 58.015 60 61.5676Z" fill="#FE764C"/>
<path d="M19.3 6.43243C19.3 9.98497 16.401 12.8649 12.825 12.8649C9.24896 12.8649 6.35 9.98497 6.35 6.43243C6.35 2.8799 9.24896 0 12.825 0C16.401 0 19.3 2.8799 19.3 6.43243Z" fill="#FE764C"/>
<path d="M39.65 6.43243C39.65 9.98497 36.751 12.8649 33.175 12.8649C29.599 12.8649 26.7 9.98497 26.7 6.43243C26.7 2.8799 29.599 0 33.175 0C36.751 0 39.65 2.8799 39.65 6.43243Z" fill="#FE764C"/>
<path d="M60 6.43243C60 9.98497 57.101 12.8649 53.525 12.8649C49.949 12.8649 47.05 9.98497 47.05 6.43243C47.05 2.8799 49.949 0 53.525 0C57.101 0 60 2.8799 60 6.43243Z" fill="#FE764C"/>
</svg>
