<svg width="35" height="42" viewBox="0 0 35 42" fill="none" xmlns="http://www.w3.org/2000/svg">
<path d="M11.9 -15.0405C11.9 -11.7492 9.23609 -9.08108 5.95 -9.08108C2.66391 -9.08108 0 -11.7492 0 -15.0405C0 -18.3319 2.66391 -21 5.95 -21C9.23609 -21 11.9 -18.3319 11.9 -15.0405Z" fill="#FE764C"/>
<path d="M11.9 1.98649C11.9 5.27781 9.23609 7.94595 5.95 7.94595C2.66391 7.94595 0 5.27781 0 1.98649C0 -1.30483 2.66391 -3.97297 5.95 -3.97297C9.23609 -3.97297 11.9 -1.30483 11.9 1.98649Z" fill="#FE764C"/>
<path d="M30.6 1.98649C30.6 5.27781 27.9361 7.94595 24.65 7.94595C21.3639 7.94595 18.7 5.27781 18.7 1.98649C18.7 -1.30483 21.3639 -3.97297 24.65 -3.97297C27.9361 -3.97297 30.6 -1.30483 30.6 1.98649Z" fill="#FE764C"/>
<path d="M49.3 1.98649C49.3 5.27781 46.6361 7.94595 43.35 7.94595C40.0639 7.94595 37.4 5.27781 37.4 1.98649C37.4 -1.30483 40.0639 -3.97297 43.35 -3.97297C46.6361 -3.97297 49.3 -1.30483 49.3 1.98649Z" fill="#FE764C"/>
<path d="M68 1.98649C68 5.27781 65.3361 7.94595 62.05 7.94595C58.7639 7.94595 56.1 5.27781 56.1 1.98649C56.1 -1.30483 58.7639 -3.97297 62.05 -3.97297C65.3361 -3.97297 68 -1.30483 68 1.98649Z" fill="#FE764C"/>
<path d="M11.9 19.0135C11.9 22.3048 9.23609 24.973 5.95 24.973C2.66391 24.973 0 22.3048 0 19.0135C0 15.7222 2.66391 13.0541 5.95 13.0541C9.23609 13.0541 11.9 15.7222 11.9 19.0135Z" fill="#FE764C"/>
<path d="M30.6 19.0135C30.6 22.3048 27.9361 24.973 24.65 24.973C21.3639 24.973 18.7 22.3048 18.7 19.0135C18.7 15.7222 21.3639 13.0541 24.65 13.0541C27.9361 13.0541 30.6 15.7222 30.6 19.0135Z" fill="#FE764C"/>
<path d="M49.3 19.0135C49.3 22.3048 46.6361 24.973 43.35 24.973C40.0639 24.973 37.4 22.3048 37.4 19.0135C37.4 15.7222 40.0639 13.0541 43.35 13.0541C46.6361 13.0541 49.3 15.7222 49.3 19.0135Z" fill="#FE764C"/>
<path d="M68 19.0135C68 22.3048 65.3361 24.973 62.05 24.973C58.7639 24.973 56.1 22.3048 56.1 19.0135C56.1 15.7222 58.7639 13.0541 62.05 13.0541C65.3361 13.0541 68 15.7222 68 19.0135Z" fill="#FE764C"/>
<path d="M11.9 36.0405C11.9 39.3319 9.23609 42 5.95 42C2.66391 42 0 39.3319 0 36.0405C0 32.7492 2.66391 30.0811 5.95 30.0811C9.23609 30.0811 11.9 32.7492 11.9 36.0405Z" fill="#FE764C"/>
<path d="M30.6 36.0405C30.6 39.3319 27.9361 42 24.65 42C21.3639 42 18.7 39.3319 18.7 36.0405C18.7 32.7492 21.3639 30.0811 24.65 30.0811C27.9361 30.0811 30.6 32.7492 30.6 36.0405Z" fill="#FE764C"/>
<path d="M49.3 36.0405C49.3 39.3319 46.6361 42 43.35 42C40.0639 42 37.4 39.3319 37.4 36.0405C37.4 32.7492 40.0639 30.0811 43.35 30.0811C46.6361 30.0811 49.3 32.7492 49.3 36.0405Z" fill="#FE764C"/>
<path d="M68 36.0405C68 39.3319 65.3361 42 62.05 42C58.7639 42 56.1 39.3319 56.1 36.0405C56.1 32.7492 58.7639 30.0811 62.05 30.0811C65.3361 30.0811 68 32.7492 68 36.0405Z" fill="#FE764C"/>
<path d="M30.6 -15.0405C30.6 -11.7492 27.9361 -9.08108 24.65 -9.08108C21.3639 -9.08108 18.7 -11.7492 18.7 -15.0405C18.7 -18.3319 21.3639 -21 24.65 -21C27.9361 -21 30.6 -18.3319 30.6 -15.0405Z" fill="#FE764C"/>
<path d="M49.3 -15.0405C49.3 -11.7492 46.6361 -9.08108 43.35 -9.08108C40.0639 -9.08108 37.4 -11.7492 37.4 -15.0405C37.4 -18.3319 40.0639 -21 43.35 -21C46.6361 -21 49.3 -18.3319 49.3 -15.0405Z" fill="#FE764C"/>
<path d="M68 -15.0405C68 -11.7492 65.3361 -9.08108 62.05 -9.08108C58.7639 -9.08108 56.1 -11.7492 56.1 -15.0405C56.1 -18.3319 58.7639 -21 62.05 -21C65.3361 -21 68 -18.3319 68 -15.0405Z" fill="#FE764C"/>
</svg>
