<svg width="59" height="47" viewBox="0 0 59 47" fill="none" xmlns="http://www.w3.org/2000/svg">
<path d="M12.95 6.43243C12.95 9.98497 10.051 12.8649 6.475 12.8649C2.89896 12.8649 0 9.98497 0 6.43243C0 2.8799 2.89896 0 6.475 0C10.051 0 12.95 2.8799 12.95 6.43243Z" fill="#3FD9DC"/>
<path d="M12.95 24.8108C12.95 28.3633 10.051 31.2432 6.475 31.2432C2.89896 31.2432 0 28.3633 0 24.8108C0 21.2583 2.89896 18.3784 6.475 18.3784C10.051 18.3784 12.95 21.2583 12.95 24.8108Z" fill="#3FD9DC"/>
<path d="M33.3 24.8108C33.3 28.3633 30.401 31.2432 26.825 31.2432C23.249 31.2432 20.35 28.3633 20.35 24.8108C20.35 21.2583 23.249 18.3784 26.825 18.3784C30.401 18.3784 33.3 21.2583 33.3 24.8108Z" fill="#3FD9DC"/>
<path d="M53.65 24.8108C53.65 28.3633 50.751 31.2432 47.175 31.2432C43.599 31.2432 40.7 28.3633 40.7 24.8108C40.7 21.2583 43.599 18.3784 47.175 18.3784C50.751 18.3784 53.65 21.2583 53.65 24.8108Z" fill="#3FD9DC"/>
<path d="M74 24.8108C74 28.3633 71.101 31.2432 67.525 31.2432C63.949 31.2432 61.05 28.3633 61.05 24.8108C61.05 21.2583 63.949 18.3784 67.525 18.3784C71.101 18.3784 74 21.2583 74 24.8108Z" fill="#3FD9DC"/>
<path d="M12.95 43.1892C12.95 46.7417 10.051 49.6216 6.475 49.6216C2.89896 49.6216 0 46.7417 0 43.1892C0 39.6367 2.89896 36.7568 6.475 36.7568C10.051 36.7568 12.95 39.6367 12.95 43.1892Z" fill="#3FD9DC"/>
<path d="M33.3 43.1892C33.3 46.7417 30.401 49.6216 26.825 49.6216C23.249 49.6216 20.35 46.7417 20.35 43.1892C20.35 39.6367 23.249 36.7568 26.825 36.7568C30.401 36.7568 33.3 39.6367 33.3 43.1892Z" fill="#3FD9DC"/>
<path d="M53.65 43.1892C53.65 46.7417 50.751 49.6216 47.175 49.6216C43.599 49.6216 40.7 46.7417 40.7 43.1892C40.7 39.6367 43.599 36.7568 47.175 36.7568C50.751 36.7568 53.65 39.6367 53.65 43.1892Z" fill="#3FD9DC"/>
<path d="M74 43.1892C74 46.7417 71.101 49.6216 67.525 49.6216C63.949 49.6216 61.05 46.7417 61.05 43.1892C61.05 39.6367 63.949 36.7568 67.525 36.7568C71.101 36.7568 74 39.6367 74 43.1892Z" fill="#3FD9DC"/>
<path d="M12.95 61.5676C12.95 65.1201 10.051 68 6.475 68C2.89896 68 0 65.1201 0 61.5676C0 58.015 2.89896 55.1351 6.475 55.1351C10.051 55.1351 12.95 58.015 12.95 61.5676Z" fill="#3FD9DC"/>
<path d="M33.3 61.5676C33.3 65.1201 30.401 68 26.825 68C23.249 68 20.35 65.1201 20.35 61.5676C20.35 58.015 23.249 55.1351 26.825 55.1351C30.401 55.1351 33.3 58.015 33.3 61.5676Z" fill="#3FD9DC"/>
<path d="M53.65 61.5676C53.65 65.1201 50.751 68 47.175 68C43.599 68 40.7 65.1201 40.7 61.5676C40.7 58.015 43.599 55.1351 47.175 55.1351C50.751 55.1351 53.65 58.015 53.65 61.5676Z" fill="#3FD9DC"/>
<path d="M74 61.5676C74 65.1201 71.101 68 67.525 68C63.949 68 61.05 65.1201 61.05 61.5676C61.05 58.015 63.949 55.1351 67.525 55.1351C71.101 55.1351 74 58.015 74 61.5676Z" fill="#3FD9DC"/>
<path d="M33.3 6.43243C33.3 9.98497 30.401 12.8649 26.825 12.8649C23.249 12.8649 20.35 9.98497 20.35 6.43243C20.35 2.8799 23.249 0 26.825 0C30.401 0 33.3 2.8799 33.3 6.43243Z" fill="#3FD9DC"/>
<path d="M53.65 6.43243C53.65 9.98497 50.751 12.8649 47.175 12.8649C43.599 12.8649 40.7 9.98497 40.7 6.43243C40.7 2.8799 43.599 0 47.175 0C50.751 0 53.65 2.8799 53.65 6.43243Z" fill="#3FD9DC"/>
<path d="M74 6.43243C74 9.98497 71.101 12.8649 67.525 12.8649C63.949 12.8649 61.05 9.98497 61.05 6.43243C61.05 2.8799 63.949 0 67.525 0C71.101 0 74 2.8799 74 6.43243Z" fill="#3FD9DC"/>
</svg>
